# AST/ASF file generated using VICON BodyLanguage
# -----------------------------------------------
:version 1.10
:name VICON
:units
  mass 1.0
  length 0.45
  angle deg
:documentation
   .ast/.asf automatically generated from VICON data using
   VICON BodyBuilder and BodyLanguage model FoxedUp or BRILLIANT.MOD
:root
   order TX TY TZ RX RY RZ
   axis XYZ
   position 0 0 0  
   orientation 0 0 0 
:bonedata
  begin
     id 1 
     name lhipjoint
     direction 0.70531 -0.63749 0.310071 
     length 2.59589 
     axis 0 0 0  XYZ
  end
  begin
     id 2 
     name lfemur
     direction 0.34202 -0.939693 0  
     length 6.19797  
     axis 0 0 20  XYZ
    dof rx ry rz
    limits (-160.0 20.0)
           (-70.0 70.0)
           (-60.0 70.0)
  end
  begin
     id 3 
     name ltibia
     direction 0.34202 -0.939693 0   
     length 7.80054   
     axis 0 0 20   XYZ
    dof rx
    limits (-10.0 170.0)
  end
  begin
     id 4 
     name lfoot
     direction 0.0828572 -0.227648 0.970212   
     length 1.88124   
     axis -90 7.62852e-016 20   XYZ
    dof rx rz
    limits (-45.0 90.0)
           (-70.0 20.0)
  end
  begin
     id 5 
     name ltoes
     direction 1.53544e-011 -4.219e-011 1   
     length 0.948015   
     axis -90 7.62852e-016 20   XYZ
    dof rx
    limits (-90.0 20.0)
  end
  begin
     id 6 
     name rhipjoint
     direction -0.730062 -0.614543 0.29891   
     length 2.69282  
     axis 0 0 0  XYZ 
  end
  begin
     id 7 
     name rfemur
     direction -0.34202 -0.939693 0   
     length 5.86298   
     axis 0 0 -20   XYZ
    dof rx ry rz
    limits (-160.0 20.0)
           (-70.0 70.0)
           (-70.0 60.0)
  end
  begin
     id 8 
     name rtibia
     direction -0.34202 -0.939693 0   
     length 7.72374   
     axis 0 0 -20   XYZ
    dof rx
    limits (-10.0 170.0)
 end
 begin
     id 9 
     name rfoot
     direction -0.0967421 -0.265797 0.959163   
     length 2.02368  
     axis -90 -7.62852e-016 -20   XYZ
    dof rx rz
    limits (-45.0 90.0)
           (-20.0 70.0)
  end
  begin
     id 10 
     name rtoes
     direction -1.53524e-011 -4.21768e-011 1   
     length 1.01373   
     axis -90 -7.62852e-016 -20   XYZ
    dof rx
    limits (-90.0 20.0)
  end
  begin
     id 11 
     name lowerback
     direction 0.00561702 0.992801 -0.119643   
     length 2.02816   
     axis 0 0 0   XYZ
    dof rx ry rz
    limits (-20.0 45.0)
           (-30.0 30.0)
           (-30.0 30.0)
  end
  begin
     id 12 
     name upperback
     direction 0.00155544 0.995735 -0.0922509   
     length 2.02265   
     axis 0 0 0   XYZ
    dof rx ry rz
    limits (-20.0 45.0)
           (-30.0 30.0)
           (-30.0 30.0)
  end
  begin
     id 13 
     name thorax
     direction -0.000937535 0.999317 -0.0369292   
     length 2.04823   
     axis 0 0 0   XYZ
    dof rx ry rz
    limits (-20.0 45.0)
           (-30.0 30.0)
           (-30.0 30.0)
  end
  begin
     id 14 
     name lowerneck
     direction -0.0813151 0.981659 0.172436   
     length 1.8875   
     axis 0 0 0   XYZ
    dof rx ry rz
    limits (-20.0 45.0)
           (-30.0 30.0)
           (-30.0 30.0)
  end
  begin
     id 15 
     name upperneck
     direction 0.119359 0.955672 -0.269157   
     length 1.92801   
     axis 0 0 0   XYZ
    dof rx ry rz
    limits (-20.0 45.0)
           (-30.0 30.0)
           (-30.0 30.0)
  end
  begin
     id 16
     name head
     direction 0.0421007 0.992672 -0.113268  
     length 1.95809  
     axis 0 0 0   XYZ
    dof rx ry rz
    limits (-20.0 45.0)
           (-30.0 30.0)
           (-30.0 30.0)
  end
  begin
     id 17 
     name lclavicle
     direction 0.944093 0.32865 -0.0260136  
     length 3.84992  
     axis 0 0 0   XYZ
    dof ry rz
    limits (-20.0 10.0)
           (0.0 20.0)
  end
  begin
     id 18 
     name lhumerus
     direction 1 -4.48979e-011 -1.27712e-029   
     length 5.53593   
     axis 180 -30 -90   XYZ
    dof rx ry rz
    limits (-60.0 90.0)
           (-90.0 90.0)
           (-90.0 90.0)
  end
  begin
     id 19
     name lradius
     direction 1 -4.48966e-011 1.00051e-028   
     length 3.13345   
     axis 180 -30 -90   XYZ
    dof rx
    limits (-10.0 170.0)
  end
  begin
     id 20
     name lwrist
     direction 1 -4.4896e-011 2.56952e-028   
     length 1.56673   
     axis -5.12785e-016 90 90   XYZ
    dof ry
    limits (-180.0 0.0)
 end
  begin
     id 21 
     name lhand
     direction 1 -4.48934e-011 5.13905e-028   
     length 0.713374   
     axis -3.27915e-016 90 90   XYZ
    dof rx rz
    limits (-90.0 90.0)
           (-45.0 45.0)
  end
  begin
     id 22 
     name lfingers
     direction 1 -4.48973e-011 1.02781e-027   
     length 0.575141   
     axis -6.5583e-016 90 90   XYZ
    dof rx
    limits (0.0 90.0)
  end
  begin
     id 23
     name lthumb
     direction 0.707107 -6.34883e-011 0.707107   
     length 0.82579   
     axis -90 45 2.85299e-015   XYZ
    dof rx rz
    limits (-45.0 45.0)
           (-45.0 45.0)
  end
  begin
     id 24 
     name rclavicle
     direction -0.936895 0.34884 0.0232243   
     length 3.53304  
     axis 0 0 0   XYZ 
    dof ry rz
    limits (-10.0 20.0)
           (-20.0 0.0)
  end
  begin
     id 25 
     name rhumerus
     direction -1 -4.48965e-011 1.05514e-027  
     length 5.4685   
     axis 180 30 90   XYZ
    dof rx ry rz
    limits (-90.0 60.0)
           (-90.0 90.0)
           (-90.0 90.0)
  end
  begin
     id 26 
     name rradius
     direction -1 -4.48964e-011 -1.1079e-027   
     length 3.22411   
     axis 180 30 90   XYZ
    dof rx
    limits (-10.0 170.0)
  end
  begin
     id 27 
     name rwrist
     direction -1 -4.48973e-011 2.56952e-028   
     length 1.61206   
     axis -5.12785e-016 -90 -90   XYZ
    dof ry
    limits (-180.0 0.0)
  end
  begin
     id 28
     name rhand
     direction -1 -4.48957e-011 5.13905e-028   
     length 0.74528   
     axis -3.27915e-016 -90 -90   XYZ
    dof rx rz
    limits (-90.0 90.0)
           (-45.0 45.0)
  end
  begin
     id 29
     name rfingers
     direction -1 -4.4901e-011 1.02781e-027   
     length 0.600864   
     axis -6.5583e-016 -90 -90   XYZ
    dof rx
    limits (0.0 90.0)
  end
  begin
     id 30
     name rthumb
     direction -0.707107 -6.34972e-011 0.707107   
     length 0.862724   
     axis -90 -45 -2.85299e-015   XYZ
    dof rx rz
    limits (-45.0 45.0)
           (-45.0 45.0)
  end
:hierarchy
  begin
    root lhipjoint rhipjoint lowerback
    lhipjoint lfemur
    lfemur ltibia
    ltibia lfoot
    lfoot ltoes
    rhipjoint rfemur
    rfemur rtibia
    rtibia rfoot
    rfoot rtoes
    lowerback upperback
    upperback thorax
    thorax lowerneck lclavicle rclavicle
    lowerneck upperneck
    upperneck head
    lclavicle lhumerus
    lhumerus lradius
    lradius lwrist
    lwrist lhand lthumb
    lhand lfingers
    rclavicle rhumerus
    rhumerus rradius
    rradius rwrist
    rwrist rhand rthumb
    rhand rfingers
  end

#!OML:ASF G:\Work\Work\Patient Classification 1\Liu\Session 1\Liu.ASF
:FULLY-SPECIFIED
:DEGREES
500
root -9.0969 15.8769 4.74594 -355.476 -4.80217 3.29693
lowerback 1.51607 1.90442 -4.28856
upperback 1.07275 2.48717 -0.905242
thorax 0.109975 1.22533 1.43388
lowerneck -27.0428 -2.94827 -9.104
upperneck 26.946 -2.99698 8.25486
head 13.9786 -1.05665 4.29415
rclavicle 9.48576e-015 -4.32357e-015
rhumerus -53.8595 32.1346 -100.212
rradius 106.168
rwrist -15.1223
rhand -25.5707 35.4758
rfingers 7.12502
rthumb 0.960423 5.49823
lclavicle 9.48576e-015 -4.32357e-015
lhumerus -67.744 -27.2794 98.8326
lradius 99.018
lwrist 22.3455
lhand -23.8097 55.9481
lfingers 7.12502
lthumb 2.66113 85.9113
rfemur -4.46979 -6.85948 13.6024
rtibia 73.6301
rfoot 0.838682 -13.2978
rtoes -4.78873
lfemur -28.2565 0.439286 -31.3771
ltibia 42.3861
lfoot -12.4777 -6.48025
ltoes 10.4657
501
root -9.08946 15.8478 5.08394 -355.328 -5.4742 3.08039
lowerback 1.49716 2.0577 -4.1793
upperback 1.07118 2.69349 -0.882173
thorax 0.111089 1.32882 1.39326
lowerneck -27.1894 -2.86898 -8.83953
upperneck 26.9084 -2.89961 8.0033
head 13.9714 -1.0197 4.16314
rclavicle 1.04098e-014 2.2736e-015
rhumerus -53.449 31.6353 -100.018
rradius 104.569
rwrist -15.6253
rhand -24.506 34.2745
rfingers 7.12502
rthumb 1.98866 4.30399
lclavicle 1.04098e-014 2.2736e-015
lhumerus -64.9888 -27.7456 98.6577
lradius 97.7891
lwrist 22.3089
lhand -22.575 60.4933
lfingers 7.12502
lthumb 3.85352 -90.4382
rfemur -7.92903 -6.04872 14.4193
rtibia 76.2591
rfoot 0.0904699 -13.224
rtoes -8.01637
lfemur -27.2677 0.964096 -31.2963
ltibia 42.7985
lfoot -13.6001 -7.20888
ltoes 13.6117
502
root -9.08602 15.831 5.42667 -355.088 -6.83976 2.86622
lowerback 1.4285 2.43025 -4.12799
upperback 0.852389 3.187 -0.93591
thorax -0.0964388 1.58221 1.29658
lowerneck -27.047 -2.75473 -8.76624
upperneck 26.9843 -2.83525 8.15645
head 13.9691 -0.965196 4.22861
rclavicle 9.27765e-015 1.11941e-014
rhumerus -53.6046 30.7488 -100.026
rradius 103.24
rwrist -15.4172
rhand -23.6798 32.5042
rfingers 7.12502
rthumb 2.78664 2.5427
lclavicle 9.27765e-015 1.11941e-014
lhumerus -62.7399 -28.4655 98.7796
lradius 96.6857
lwrist 22.9224
lhand -23.8418 62.327
lfingers 7.12502
lthumb 2.63018 -92.2905
rfemur -11.7777 -4.53093 15.2802
rtibia 78.6177
rfoot 0.247299 -13.4159
rtoes -10.543
lfemur -26.2873 2.10315 -31.2391
ltibia 43.0609
lfoot -14.9238 -7.93927
ltoes 16.1123
503
root -9.07019 15.7989 5.77009 -355.256 -7.29285 3.28546
lowerback 1.5179 2.46636 -4.33628
upperback 0.807789 3.22517 -1.18553
thorax -0.1912 1.60315 1.15053
lowerneck -27.1575 -2.51085 -8.59904
upperneck 27.3717 -2.58027 8.19985
head 14.1271 -0.833835 4.28652
rclavicle 7.3364e-015 1.76918e-014
rhumerus -53.9991 29.7188 -100.093
rradius 102.196
rwrist -14.4217
rhand -23.5066 30.8615
rfingers 7.12502
rthumb 2.9539 0.902243
lclavicle 7.3364e-015 1.76918e-014
lhumerus -60.3432 -29.1316 98.7623
lradius 95.5501
lwrist 23.6487
lhand -24.1284 62.5374
lfingers 7.12502
lthumb 2.35337 -92.5042
rfemur -14.512 -3.83346 15.2331
rtibia 80.4878
rfoot -0.471138 -13.0456
rtoes -8.84763
lfemur -24.648 2.50367 -31.8688
ltibia 43.0483
lfoot -16.0161 -8.72067
ltoes 17.548
504
root -9.06622 15.7613 6.08448 -355.128 -7.46975 3.91583
lowerback 1.44698 2.36709 -4.90832
upperback 0.741165 3.08602 -1.46327
thorax -0.226959 1.53403 1.18826
lowerneck -27.3187 -2.22278 -8.27543
upperneck 27.6761 -2.2818 8.12262
head 14.2522 -0.682534 4.2733
rclavicle -2.67365e-014 -1.50082e-014
rhumerus -54.1045 28.8645 -100.09
rradius 100.959
rwrist -13.5517
rhand -23.8782 30.5127
rfingers 7.12502
rthumb 2.595 0.548789
lclavicle -2.67365e-014 -1.50082e-014
lhumerus -57.6633 -29.3448 98.2226
lradius 94.8929
lwrist 23.115
lhand -21.23 62.8519
lfingers 7.12502
lthumb 5.15227 -92.7692
rfemur -17.458 -3.26687 15.0506
rtibia 82.0886
rfoot -4.0652 -12.2861
rtoes -12.7623
lfemur -23.3259 2.77427 -32.6902
ltibia 42.8216
lfoot -16.7291 -9.58907
ltoes 17.9949
505
root -9.06892 15.7381 6.41582 -355.048 -8.58017 3.90052
lowerback 1.26222 2.51602 -5.1335
upperback 0.625966 3.28878 -1.49255
thorax -0.264167 1.63725 1.28351
lowerneck -27.1849 -1.93866 -7.994
upperneck 27.9572 -1.99817 8.05712
head 14.3105 -0.54494 4.26422
rclavicle -2.04624e-014 3.47873e-015
rhumerus -54.4024 28.3794 -100.274
rradius 99.4865
rwrist -13.1581
rhand -24.2872 31.5322
rfingers 7.12502
rthumb 2.2 1.56384
lclavicle -2.04624e-014 3.47873e-015
lhumerus -55.3812 -29.0428 97.7168
lradius 94.7591
lwrist 22.2468
lhand -28.5946 56.6578
lfingers 7.12502
lthumb -1.96019 86.6285
rfemur -20.4966 -1.59222 15.7163
rtibia 83.1585
rfoot -6.12343 -12.0601
rtoes -14.5619
lfemur -21.6872 3.92503 -32.8344
ltibia 42.1436
lfoot -17.423 -10.3776
ltoes 19.073
506
root -9.02752 15.7172 6.7575 -355.054 -6.25119 3.74019
lowerback 1.45155 1.47325 -4.32492
upperback 0.501096 1.895 -1.42272
thorax -0.391247 0.946582 0.927414
lowerneck -26.8146 -1.64872 -7.9757
upperneck 28.2865 -1.6656 8.15936
head 14.3409 -0.395443 4.37877
rclavicle -1.50828e-014 -9.0447e-015
rhumerus -55.2866 28.0838 -100.614
rradius 98.9172
rwrist -12.5667
rhand -25.3374 32.1577
rfingers 7.12502
rthumb 1.18568 2.18122
lclavicle -1.50828e-014 -9.0447e-015
lhumerus -53.6351 -28.508 97.5832
lradius 95.0088
lwrist 21.8463
lhand -24.265 62.0575
lfingers 7.12502
lthumb 2.2214 -92.0257
rfemur -22.2198 -3.4527 16.3843
rtibia 83.4198
rfoot -8.04027 -11.5528
rtoes -14.2275
lfemur -19.6234 1.7958 -32.7558
ltibia 41.3044
lfoot -17.3654 -10.818
ltoes 21.6797
507
root -9.02266 15.7789 7.12812 -354.572 -6.17811 3.6204
lowerback 0.954907 1.20232 -4.31578
upperback 0.309811 1.5567 -1.34252
thorax -0.294966 0.778468 1.02051
lowerneck -26.709 -1.32508 -7.94845
upperneck 28.5534 -1.29142 8.34649
head 14.3947 -0.210076 4.53683
rclavicle -8.10048e-015 3.77691e-015
rhumerus -55.9992 27.6509 -100.743
rradius 98.8264
rwrist -12.5168
rhand -25.594 32.9817
rfingers 7.12502
rthumb 0.93783 3.004
lclavicle -8.10048e-015 3.77691e-015
lhumerus -51.9598 -28.3332 97.626
lradius 95.5706
lwrist 22.0726
lhand -28.4807 53.6634
lfingers 7.12502
lthumb -1.85022 83.6351
rfemur -26.9506 -2.84938 17.3506
rtibia 83.3641
rfoot -5.83796 -12.7912
rtoes -23.5524
lfemur -17.9376 1.79894 -32.714
ltibia 40.4289
lfoot -17.5428 -11.4724
ltoes 23.7022
508
root -9.01783 15.7709 7.45933 -355.146 -6.00335 3.85829
lowerback 1.46471 0.968743 -4.55559
upperback 0.556778 1.22116 -1.37017
thorax -0.314813 0.607794 1.12446
lowerneck -27.2643 -1.02744 -7.63497
upperneck 28.9908 -0.908287 8.15796
head 14.659 -0.0380671 4.5117
rclavicle 1.29334e-014 1.23246e-014
rhumerus -56.1795 27.2331 -100.562
rradius 99.0372
rwrist -13.3224
rhand -25.1563 33.3141
rfingers 7.12502
rthumb 1.36056 3.33865
lclavicle 1.29334e-014 1.23246e-014
lhumerus -50.1133 -28.6236 97.679
lradius 96.2867
lwrist 22.7623
lhand -29.2338 51.2224
lfingers 7.12502
lthumb -2.5775 81.1866
rfemur -28.2019 -2.82395 17.9052
rtibia 83.1178
rfoot -6.52695 -13.4979
rtoes -29.833
lfemur -15.6344 2.06301 -32.9836
ltibia 40.0568
lfoot -17.7223 -12.1666
ltoes 24.3733
